<svg xmlns="http://www.w3.org/2000/svg" xmlns:xlink="http://www.w3.org/1999/xlink" width="242" height="50" viewBox="0 0 242 50">
  <defs>
    <linearGradient id="linear-gradient" y1="0.5" x2="0.992" y2="0.5" gradientUnits="objectBoundingBox">
      <stop offset="0" stop-color="#383838"/>
      <stop offset="1" stop-color="#222"/>
    </linearGradient>
    <linearGradient id="linear-gradient-2" x1="-0.661" y1="0.5" x2="1.263" y2="0.5" gradientUnits="objectBoundingBox">
      <stop offset="0" stop-color="#fe8a02"/>
      <stop offset="1" stop-color="#f854af"/>
    </linearGradient>
  </defs>
  <g id="Group_11" data-name="Group 11" transform="translate(-636 550.317)">
    <rect id="Rectangle_43" data-name="Rectangle 43" width="242" height="50" transform="translate(636 -550.317)" opacity="0" fill="url(#linear-gradient)"/>
    <g id="Group_10" data-name="Group 10" transform="translate(648.321 -538.587)">
      <path id="Path_9" data-name="Path 9" d="M18.734-97.1a1.938,1.938,0,0,0-1.682.645,5.45,5.45,0,0,0-.462,2.789v2.824a5.4,5.4,0,0,0,.462,2.771,1.938,1.938,0,0,0,1.682.645h.68a1.938,1.938,0,0,0,1.682-.645,5.4,5.4,0,0,0,.462-2.771v-2.824a5.451,5.451,0,0,0-.462-2.789,1.938,1.938,0,0,0-1.683-.645Zm-7.967-11.957H16.59v9.885a4.065,4.065,0,0,1,1.813-1.883,6.314,6.314,0,0,1,2.981-.645A5.606,5.606,0,0,1,26-99.879q1.482,1.822,1.482,5.709v3.783q0,3.891-1.464,5.709a5.574,5.574,0,0,1-4.606,1.822,6.283,6.283,0,0,1-3.086-.68,5,5,0,0,1-1.985-2.179l.07,2.615H10.767ZM31.45-83.1v-25.956h5.927V-83.1ZM46.9-93.735v2.929a5.973,5.973,0,0,0,.445,2.972,2.136,2.136,0,0,0,1.769.584h.715a2.1,2.1,0,0,0,1.747-.575,6.071,6.071,0,0,0,.436-2.981v-2.929a6.129,6.129,0,0,0-.436-3,2.1,2.1,0,0,0-1.747-.575h-.715a2.118,2.118,0,0,0-1.769.592A6.028,6.028,0,0,0,46.9-93.735Zm-5.962-.436q0-4.166,1.63-5.848t5.657-1.682H50.69q4.027,0,5.657,1.682t1.63,5.848v3.783q0,4.184-1.63,5.857T50.69-82.858H48.229q-4.027,0-5.657-1.673t-1.63-5.857Zm36.982,3.819q0,.14.017.427t.017.427q0,3.573-1.673,5.107t-5.648,1.534H68.176q-4.027,0-5.657-1.673t-1.63-5.857v-3.785q0-4.166,1.63-5.848t5.657-1.682h2.462q3.939,0,5.613,1.517t1.673,5.055v.488H72.067v-.175a2.991,2.991,0,0,0-.476-1.953,2.252,2.252,0,0,0-1.734-.541h-.785a2.118,2.118,0,0,0-1.769.592,6.028,6.028,0,0,0-.445,2.981v2.929a5.973,5.973,0,0,0,.445,2.972,2.136,2.136,0,0,0,1.769.584h.785a2.184,2.184,0,0,0,1.747-.566,3.415,3.415,0,0,0,.471-2.1v-.434ZM81.663-83.1v-25.956h5.822v14.5h.436l3.573-6.9H98.1l-5,8.821,6,9.533H92.278L87.92-90.458h-.436V-83.1Z" transform="translate(-10.767 109.058)" fill="url(#linear-gradient-2)"/>
      <path id="Path_10" data-name="Path 10" d="M395.837-93.77v3a5.6,5.6,0,0,0,1.333,4.158,5.962,5.962,0,0,0,4.279,1.3q2.667,0,3.547-.958t.881-4.428v-3.137q0-3.487-.881-4.447t-3.546-.959a5.967,5.967,0,0,0-4.279,1.3A5.632,5.632,0,0,0,395.837-93.77Zm-2.7,10.668v-25.956h2.7v10.215a4.835,4.835,0,0,1,2.118-2.188,8.082,8.082,0,0,1,3.6-.671q3.922,0,5.535,1.621t1.613,5.631v4.358q0,3.992-1.613,5.613t-5.535,1.621a8.07,8.07,0,0,1-3.761-.746,4.488,4.488,0,0,1-2.057-2.327v2.824Zm32.1-4.672v-1.935a2.011,2.011,0,0,0-1.333-1.918,10.879,10.879,0,0,0-4.244-.61,6.471,6.471,0,0,0-3.565.671,3.052,3.052,0,0,0-.9,2.571q0,2.161.953,2.885t3.812.723A9.787,9.787,0,0,0,423.884-86a1.939,1.939,0,0,0,1.352-1.77Zm.14,2.737a3.624,3.624,0,0,1-2,1.668,11.141,11.141,0,0,1-3.792.515q-4.305,0-5.77-1.229t-1.464-4.576a10.68,10.68,0,0,1,.34-3.033,3.653,3.653,0,0,1,1.124-1.76,4.159,4.159,0,0,1,1.944-.794,21.807,21.807,0,0,1,3.687-.238,13.536,13.536,0,0,1,3.812.41,3.61,3.61,0,0,1,1.979,1.368v-3.176q0-2.249-.873-2.911t-4.375-.662a7.113,7.113,0,0,0-3.382.532,2.25,2.25,0,0,0-.873,2h-2.7v-.418a3.711,3.711,0,0,1,1.525-3.356q1.525-1,5.256-1a29.987,29.987,0,0,1,4.428.244,5.241,5.241,0,0,1,2.249.785,3.4,3.4,0,0,1,1.133,1.552,10.515,10.515,0,0,1,.331,3.176V-83.1h-2.475Zm7.645,1.935v-18.357h2.632v2.51a3.962,3.962,0,0,1,1.8-2.092,6.8,6.8,0,0,1,3.242-.662q3,0,4.209,1.447t1.212,5.125v.14h-2.74v-.541a4.514,4.514,0,0,0-.7-2.955,3.533,3.533,0,0,0-2.63-.76,3.924,3.924,0,0,0-3.277,1.282,6.828,6.828,0,0,0-1.011,4.193V-83.1Zm15.7-5.456h2.751v.418a2.5,2.5,0,0,0,1.046,2.327,9.174,9.174,0,0,0,4.2.635q3.538,0,4.358-.645a3.049,3.049,0,0,0,.819-2.493,3.208,3.208,0,0,0-.671-2.4q-.671-.6-3.356-.741-.993-.052-2.685-.1-3.7-.1-4.393-.506a3.322,3.322,0,0,1-1.49-1.569,7.238,7.238,0,0,1-.445-2.859q0-3.051,1.552-4.129t6.833-1.081q4.1,0,5.552,1.032a4.123,4.123,0,0,1,1.456,3.608h-2.72v-.175a1.682,1.682,0,0,0-1.054-1.682,12.3,12.3,0,0,0-4.193-.462q-3.033,0-3.87.556a2.647,2.647,0,0,0-.837,2.336,5.032,5.032,0,0,0,.159,1.517,1.207,1.207,0,0,0,.556.662,9.891,9.891,0,0,0,3.626.506q.715.017,1.1.035,2.3.087,3.608.238a6.521,6.521,0,0,1,1.865.41,3.43,3.43,0,0,1,1.734,1.6,7.075,7.075,0,0,1,.515,3.033,7.29,7.29,0,0,1-.506,3.068,4.576,4.576,0,0,1-1.813,1.848,4.805,4.805,0,0,1-1.935.549,32.3,32.3,0,0,1-3.732.166q-4.881,0-6.458-1.124t-1.578-4.088Zm19.306-10.581v-2.319h2.249v-4.129h2.716v4.129h9v2.319h-9v10.11a4.483,4.483,0,0,0,.706,2.938,3.6,3.6,0,0,0,2.694.776,3.586,3.586,0,0,0,2.658-.75,4.554,4.554,0,0,0,.689-2.963v-.541h2.755v.159q0,3.869-1.282,5.212t-5.325,1.342q-3.155,0-4.384-1.421t-1.229-5.134v-9.727Zm21.154,5.073h10.39v-.715q0-2.58-.924-3.5t-3.661-.924h-1.27q-2.72,0-3.626.924t-.907,3.5Zm4.567,11.209q-4.114,0-5.752-1.6t-1.638-5.631v-4.358q0-4.044,1.63-5.648t5.726-1.6h1.27q4.114,0,5.752,1.6t1.639,5.648v2.771l-13.2.017q-.017.279-.026.619t-.009.953q0,2.841.907,3.812t3.661.967h1.271a6.009,6.009,0,0,0,3.415-.706,3.256,3.256,0,0,0,1.116-2.466h2.824a5.644,5.644,0,0,1-1.918,4.305q-1.709,1.325-5.4,1.325Zm13.135-.244v-18.357h2.632v2.51a3.963,3.963,0,0,1,1.8-2.092,6.8,6.8,0,0,1,3.242-.662q3,0,4.208,1.447t1.212,5.125v.14h-2.737v-.541a4.515,4.515,0,0,0-.7-2.955,3.533,3.533,0,0,0-2.632-.758,3.924,3.924,0,0,0-3.277,1.282,6.827,6.827,0,0,0-1.011,4.193V-83.1Z" transform="translate(-302.13 109.058)" fill="#fff"/>
    </g>
  </g>
</svg>
