<svg xmlns="http://www.w3.org/2000/svg" width="12.175" height="20.269" viewBox="0 0 12.175 20.269">
  <g id="Group_229" data-name="Group 229" transform="translate(0 0)">
    <path id="Path_1" data-name="Path 1" d="M268.869,240.352a.493.493,0,0,1-.1.3l-5.58,7.984a.5.5,0,0,1-.819,0l-5.586-7.993a.5.5,0,0,1,.714-.684l5.282,4.007,5.282-4a.5.5,0,0,1,.278-.1h.032a.5.5,0,0,1,.495.5Z" transform="translate(-256.694 -228.576)" fill="#fff"/>
    <path id="Path_2" data-name="Path 2" d="M274.536,75.934l-5.159-8.582a.5.5,0,0,0-.857,0l-5.159,8.582a.5.5,0,0,0,.123.653l5.158,3.98a.5.5,0,0,0,.611,0l5.158-3.98A.5.5,0,0,0,274.536,75.934Zm-.819.081h0a.428.428,0,0,1-.567.214L269.108,74.4a.384.384,0,0,0-.317,0l-4.043,1.831a.428.428,0,1,1-.353-.78l4.378-1.985h0a.428.428,0,0,1,.357,0l4.378,1.985a.428.428,0,0,1,.211.567Z" transform="translate(-262.86 -67.109)" fill="#fff"/>
  </g>
</svg>
