<svg xmlns="http://www.w3.org/2000/svg" width="432.873" height="84.849" viewBox="0 0 432.873 84.849">
  <path id="Path_5" data-name="Path 5" d="M9.973,0V-25.987H1.37v-7.457H27.6v7.457H19.047V0ZM40.891-17.295H45.9a4.433,4.433,0,0,0,3.055-.786,4.013,4.013,0,0,0,.809-2.9v-1.28a4.058,4.058,0,0,0-.82-2.931,4.393,4.393,0,0,0-3.043-.8H40.891ZM31.929,0V-33.444H45.405q7.727,0,10.6,2.033t2.875,7.131v2.7a7.924,7.924,0,0,1-1.64,5.312,7.293,7.293,0,0,1-4.852,2.325A8.381,8.381,0,0,1,57.332-11.7,6.847,6.847,0,0,1,58.882-6.9V0H49.718V-6.02a4.058,4.058,0,0,0-.82-2.931,4.393,4.393,0,0,0-3.043-.8H40.891V0Zm42.8-12.646h7.322L78.726-26.5h-.584ZM61.948,0l9.613-33.444H85.352L94.741,0H85.128l-1.5-5.84H73.089L71.561,0ZM98.526,0V-33.444h17q7.1,0,9.95,2.965T128.332-20.1v6.761q0,7.412-2.853,10.377T115.529,0Zm8.962-7.457h6.671q3.077,0,4.043-1.1t.966-5.391v-5.5q0-4.29-.977-5.413t-4.032-1.123h-6.671ZM133.622,0V-33.444h25.111v7.457H142.584v5.795h15.678v6.446H142.584v6.289h16.509V0Zm32.153,0V-8h7.345V1.19A3.985,3.985,0,0,1,171.312,4.6a8.263,8.263,0,0,1-4.863,1.28h-.674V2.538h.135a2.762,2.762,0,0,0,1.763-.494,1.682,1.682,0,0,0,.618-1.393q0-.27-.011-.4A2.2,2.2,0,0,0,168.246,0Zm57.1-33.444h13.095V0h-8.737V-24.572L220.513,0h-8.962l-6.761-24.842V0h-8.737V-33.444h13.095L216-9.254ZM242.6,0V-33.444h9.052V0Zm15.644,0V-33.444h13.319L281.967-8.6V-33.444h8.558V0H277.183l-10.4-25.066V0Zm45.2,0V-25.987h-8.6v-7.457h26.234v7.457h-8.558V0Zm16.206,0V-8H327V1.19A3.985,3.985,0,0,1,325.194,4.6a8.263,8.263,0,0,1-4.863,1.28h-.674V2.538h.135a2.762,2.762,0,0,0,1.763-.494,1.682,1.682,0,0,0,.618-1.393q0-.27-.011-.4A2.189,2.189,0,0,0,322.128,0ZM1.932,40.646h8.6v.337a2.971,2.971,0,0,0,.966,2.538,5.958,5.958,0,0,0,3.414.719H17.16a5.42,5.42,0,0,0,2.864-.55,2.168,2.168,0,0,0,.82-1.943v-1.46a2.052,2.052,0,0,0-.651-1.707,6.664,6.664,0,0,0-2.942-.786l-7.277-.786q-4.065-.449-5.941-2.549T2.156,28.225V26.158A11.025,11.025,0,0,1,2.9,21.992a7.417,7.417,0,0,1,2.156-3A7.114,7.114,0,0,1,8,17.567a23.813,23.813,0,0,1,5.166-.416H18.53q5.009,0,7.659,2.021a6.9,6.9,0,0,1,2.65,5.84V27.3h-8.6v-.359a2.591,2.591,0,0,0-.708-2.089,4.124,4.124,0,0,0-2.549-.584H14.914a5.938,5.938,0,0,0-2.931.505,1.9,1.9,0,0,0-.8,1.741V27.91q0,1.842,3.616,2.246l6.626.741a10.869,10.869,0,0,1,6.4,2.5,7.428,7.428,0,0,1,2.111,5.649v3.212a8.814,8.814,0,0,1-2.583,6.648,9.571,9.571,0,0,1-6.94,2.493h-7.3q-5.862,0-8.524-2.021T1.932,42.959ZM41.385,51V25.013h-8.6V17.556H59.017v7.457H50.459V51ZM71.427,31.549v5.5q0,4.29.966,5.391t4.043,1.1H78.1q3.077,0,4.065-1.123t.988-5.368v-5.5q0-4.268-.988-5.4T78.1,25.013H76.435q-3.055,0-4.032,1.123T71.427,31.549Zm-9.164-.741q0-7.614,2.853-10.635t9.95-3.021h4.4q7.12,0,9.984,3.032t2.864,10.624v6.94q0,7.592-2.864,10.624T79.468,51.4h-4.4q-7.1,0-9.95-3.021T62.263,37.748Zm44.3,2.9h5.009a4.433,4.433,0,0,0,3.055-.786,4.013,4.013,0,0,0,.809-2.9v-1.28a4.058,4.058,0,0,0-.82-2.931,4.393,4.393,0,0,0-3.043-.8h-5.009ZM97.605,51V17.556h13.477q7.727,0,10.6,2.033t2.875,7.131v2.7a7.924,7.924,0,0,1-1.64,5.312,7.293,7.293,0,0,1-4.852,2.325,8.381,8.381,0,0,1,4.941,2.246,6.847,6.847,0,0,1,1.55,4.807V51h-9.164V44.98a4.058,4.058,0,0,0-.82-2.931,4.393,4.393,0,0,0-3.043-.8h-4.964V51Zm32.558,0V17.556h25.111v7.457H139.125v5.795H154.8v6.446H139.125v6.289h16.509V51Zm54.873-19.451v5.5q0,4.29.966,5.391t4.043,1.1h1.662q3.077,0,4.065-1.123t.988-5.368v-5.5q0-4.268-.988-5.4t-4.065-1.134h-1.662q-3.055,0-4.032,1.123T185.036,31.549Zm-9.164-.741q0-7.614,2.853-10.635t9.95-3.021h4.4q7.12,0,9.984,3.032t2.864,10.624v6.94q0,7.592-2.864,10.624T193.077,51.4h-4.4q-7.1,0-9.95-3.021t-2.853-10.635Zm44.3,2.9h5.009a4.433,4.433,0,0,0,3.055-.786,4.013,4.013,0,0,0,.809-2.9v-1.28a4.058,4.058,0,0,0-.82-2.931,4.393,4.393,0,0,0-3.043-.8h-5.009ZM211.215,51V17.556h13.477q7.727,0,10.6,2.033t2.875,7.131v2.7a7.924,7.924,0,0,1-1.64,5.312,7.293,7.293,0,0,1-4.852,2.325,8.381,8.381,0,0,1,4.941,2.246,6.847,6.847,0,0,1,1.55,4.807V51H229V44.98a4.058,4.058,0,0,0-.82-2.931,4.393,4.393,0,0,0-3.043-.8h-4.964V51Zm48.472,0V17.556h9.052V51Zm15.645,0V17.556H288.65l10.4,24.842V17.556h8.558V51H294.265l-10.4-25.066V51Zm36.106-33.444h9.523l6.491,26.122,6.806-26.122h9.479L334.212,51H320.646ZM347.5,51V17.556H372.61v7.457H356.46v5.795h15.678v6.446H356.46v6.289h16.509V51Zm29.66-10.354h8.6v.337a2.971,2.971,0,0,0,.966,2.538,5.958,5.958,0,0,0,3.414.719h2.246a5.42,5.42,0,0,0,2.864-.55,2.168,2.168,0,0,0,.82-1.943v-1.46a2.052,2.052,0,0,0-.651-1.707,6.664,6.664,0,0,0-2.942-.786l-7.277-.786q-4.065-.449-5.941-2.549t-1.875-6.233V26.158a11.025,11.025,0,0,1,.741-4.167,7.417,7.417,0,0,1,2.156-3,7.114,7.114,0,0,1,2.942-1.426,23.813,23.813,0,0,1,5.166-.416h5.368q5.009,0,7.659,2.021a6.9,6.9,0,0,1,2.65,5.84V27.3h-8.6v-.359a2.591,2.591,0,0,0-.708-2.089,4.123,4.123,0,0,0-2.549-.584h-2.066a5.938,5.938,0,0,0-2.931.505,1.9,1.9,0,0,0-.8,1.741V27.91q0,1.842,3.616,2.246l6.626.741a10.869,10.869,0,0,1,6.4,2.5,7.428,7.428,0,0,1,2.111,5.649v3.212a8.814,8.814,0,0,1-2.583,6.648,9.571,9.571,0,0,1-6.94,2.493h-7.3q-5.862,0-8.524-2.021t-2.662-6.424ZM416.612,51V25.013h-8.6V17.556h26.234v7.457h-8.558V51Z" transform="translate(-1.37 33.444)" fill="#a7a7a7"/>
</svg>
